<mxfile host="app.diagrams.net" agent="Mozilla/5.0 (Windows NT 10.0; Win64; x64) AppleWebKit/537.36 (KHTML, like Gecko) Chrome/134.0.0.0 Safari/537.36" version="26.1.1">
  <diagram name="Page-1" id="c4acf3e9-155e-7222-9cf6-157b1a14988f">
    <mxGraphModel dx="2570" dy="1859" grid="1" gridSize="10" guides="1" tooltips="1" connect="1" arrows="1" fold="1" page="1" pageScale="1" pageWidth="850" pageHeight="1100" background="none" math="0" shadow="0" adaptiveColors="auto">
      <root>
        <mxCell id="0" />
        <mxCell id="1" parent="0" />
        <mxCell id="nj6uRhFDFIgMoqxumQQm-3" value="team" style="swimlane;fontStyle=1;align=center;verticalAlign=top;childLayout=stackLayout;horizontal=1;startSize=26;horizontalStack=0;resizeParent=1;resizeParentMax=0;resizeLast=0;collapsible=1;marginBottom=0;whiteSpace=wrap;html=1;fillColor=#f8cecc;strokeColor=#b85450;" parent="1" vertex="1">
          <mxGeometry x="-49" y="46" width="160" height="144" as="geometry" />
        </mxCell>
        <mxCell id="nj6uRhFDFIgMoqxumQQm-4" value="+ int NoOfplayers&lt;div&gt;+ player[] TotalPlayers&lt;br&gt;&lt;div&gt;+ String TeamName&lt;/div&gt;&lt;div&gt;+ String Captain&lt;/div&gt;&lt;div&gt;+ String Record&lt;/div&gt;&lt;/div&gt;" style="text;strokeColor=#6c8ebf;fillColor=#dae8fc;align=left;verticalAlign=top;spacingLeft=4;spacingRight=4;overflow=hidden;rotatable=0;points=[[0,0.5],[1,0.5]];portConstraint=eastwest;whiteSpace=wrap;html=1;" parent="nj6uRhFDFIgMoqxumQQm-3" vertex="1">
          <mxGeometry y="26" width="160" height="84" as="geometry" />
        </mxCell>
        <mxCell id="nj6uRhFDFIgMoqxumQQm-5" value="" style="line;strokeWidth=1;fillColor=none;align=left;verticalAlign=middle;spacingTop=-1;spacingLeft=3;spacingRight=3;rotatable=0;labelPosition=right;points=[];portConstraint=eastwest;strokeColor=inherit;" parent="nj6uRhFDFIgMoqxumQQm-3" vertex="1">
          <mxGeometry y="110" width="160" height="8" as="geometry" />
        </mxCell>
        <mxCell id="nj6uRhFDFIgMoqxumQQm-6" value="+ method(type): type" style="text;strokeColor=none;fillColor=none;align=left;verticalAlign=top;spacingLeft=4;spacingRight=4;overflow=hidden;rotatable=0;points=[[0,0.5],[1,0.5]];portConstraint=eastwest;whiteSpace=wrap;html=1;" parent="nj6uRhFDFIgMoqxumQQm-3" vertex="1">
          <mxGeometry y="118" width="160" height="26" as="geometry" />
        </mxCell>
        <mxCell id="nj6uRhFDFIgMoqxumQQm-7" value="player" style="swimlane;fontStyle=1;align=center;verticalAlign=top;childLayout=stackLayout;horizontal=1;startSize=26;horizontalStack=0;resizeParent=1;resizeParentMax=0;resizeLast=0;collapsible=1;marginBottom=0;whiteSpace=wrap;html=1;fillColor=#d5e8d4;strokeColor=#82b366;" parent="1" vertex="1">
          <mxGeometry x="-39" y="-214" width="160" height="104" as="geometry" />
        </mxCell>
        <mxCell id="nj6uRhFDFIgMoqxumQQm-8" value="+ int PlayerNo&lt;div&gt;+ String Position&lt;/div&gt;" style="text;strokeColor=#6c8ebf;fillColor=#dae8fc;align=left;verticalAlign=top;spacingLeft=4;spacingRight=4;overflow=hidden;rotatable=0;points=[[0,0.5],[1,0.5]];portConstraint=eastwest;whiteSpace=wrap;html=1;" parent="nj6uRhFDFIgMoqxumQQm-7" vertex="1">
          <mxGeometry y="26" width="160" height="44" as="geometry" />
        </mxCell>
        <mxCell id="nj6uRhFDFIgMoqxumQQm-9" value="" style="line;strokeWidth=1;fillColor=none;align=left;verticalAlign=middle;spacingTop=-1;spacingLeft=3;spacingRight=3;rotatable=0;labelPosition=right;points=[];portConstraint=eastwest;strokeColor=inherit;" parent="nj6uRhFDFIgMoqxumQQm-7" vertex="1">
          <mxGeometry y="70" width="160" height="8" as="geometry" />
        </mxCell>
        <mxCell id="nj6uRhFDFIgMoqxumQQm-10" value="+ method(type): type" style="text;strokeColor=#d6b656;fillColor=#fff2cc;align=left;verticalAlign=top;spacingLeft=4;spacingRight=4;overflow=hidden;rotatable=0;points=[[0,0.5],[1,0.5]];portConstraint=eastwest;whiteSpace=wrap;html=1;" parent="nj6uRhFDFIgMoqxumQQm-7" vertex="1">
          <mxGeometry y="78" width="160" height="26" as="geometry" />
        </mxCell>
        <mxCell id="nj6uRhFDFIgMoqxumQQm-11" value="game" style="swimlane;fontStyle=1;align=center;verticalAlign=top;childLayout=stackLayout;horizontal=1;startSize=26;horizontalStack=0;resizeParent=1;resizeParentMax=0;resizeLast=0;collapsible=1;marginBottom=0;whiteSpace=wrap;html=1;fillColor=#ffe6cc;strokeColor=#d79b00;" parent="1" vertex="1">
          <mxGeometry x="321" y="-324" width="160" height="124" as="geometry" />
        </mxCell>
        <mxCell id="nj6uRhFDFIgMoqxumQQm-12" value="+ team RightTeam&lt;div&gt;+ team LeftTeam&lt;/div&gt;&lt;div&gt;+ int Score&lt;/div&gt;&lt;div&gt;+ String Location&lt;/div&gt;" style="text;strokeColor=#6c8ebf;fillColor=#dae8fc;align=left;verticalAlign=top;spacingLeft=4;spacingRight=4;overflow=hidden;rotatable=0;points=[[0,0.5],[1,0.5]];portConstraint=eastwest;whiteSpace=wrap;html=1;" parent="nj6uRhFDFIgMoqxumQQm-11" vertex="1">
          <mxGeometry y="26" width="160" height="64" as="geometry" />
        </mxCell>
        <mxCell id="nj6uRhFDFIgMoqxumQQm-13" value="" style="line;strokeWidth=1;fillColor=none;align=left;verticalAlign=middle;spacingTop=-1;spacingLeft=3;spacingRight=3;rotatable=0;labelPosition=right;points=[];portConstraint=eastwest;strokeColor=inherit;" parent="nj6uRhFDFIgMoqxumQQm-11" vertex="1">
          <mxGeometry y="90" width="160" height="8" as="geometry" />
        </mxCell>
        <mxCell id="nj6uRhFDFIgMoqxumQQm-14" value="+ method(type): type" style="text;strokeColor=none;fillColor=none;align=left;verticalAlign=top;spacingLeft=4;spacingRight=4;overflow=hidden;rotatable=0;points=[[0,0.5],[1,0.5]];portConstraint=eastwest;whiteSpace=wrap;html=1;" parent="nj6uRhFDFIgMoqxumQQm-11" vertex="1">
          <mxGeometry y="98" width="160" height="26" as="geometry" />
        </mxCell>
        <mxCell id="nj6uRhFDFIgMoqxumQQm-29" style="edgeStyle=orthogonalEdgeStyle;rounded=0;orthogonalLoop=1;jettySize=auto;html=1;entryX=0.5;entryY=0;entryDx=0;entryDy=0;" parent="1" source="nj6uRhFDFIgMoqxumQQm-16" target="nj6uRhFDFIgMoqxumQQm-17" edge="1">
          <mxGeometry relative="1" as="geometry" />
        </mxCell>
        <mxCell id="nj6uRhFDFIgMoqxumQQm-16" value="&lt;p style=&quot;margin:0px;margin-top:4px;text-align:center;&quot;&gt;&lt;i&gt;&amp;lt;&amp;lt;Interface&amp;gt;&amp;gt;&lt;/i&gt;&lt;br&gt;&lt;b&gt;People&lt;/b&gt;&lt;/p&gt;&lt;hr size=&quot;1&quot; style=&quot;border-style:solid;&quot;&gt;&lt;div&gt;+ String Name&lt;/div&gt;&lt;div&gt;+ String Address&lt;/div&gt;&lt;hr size=&quot;1&quot; style=&quot;border-style:solid;&quot;&gt;&lt;p style=&quot;margin:0px;margin-left:4px;&quot;&gt;+ method1(Type): Type&lt;br&gt;+ method2(Type, Type): Type&lt;/p&gt;" style="verticalAlign=top;align=left;overflow=fill;html=1;whiteSpace=wrap;fillColor=#d5e8d4;strokeColor=#82b366;" parent="1" vertex="1">
          <mxGeometry x="-529" y="-340" width="190" height="140" as="geometry" />
        </mxCell>
        <mxCell id="nj6uRhFDFIgMoqxumQQm-17" value="&lt;p style=&quot;margin:0px;margin-top:4px;text-align:center;&quot;&gt;&lt;i&gt;&amp;lt;&amp;lt;Interface&amp;gt;&amp;gt;&lt;/i&gt;&lt;br&gt;&lt;b&gt;Coach&lt;/b&gt;&lt;/p&gt;&lt;hr size=&quot;1&quot; style=&quot;border-style:solid;&quot;&gt;&lt;p style=&quot;margin:0px;margin-left:4px;&quot;&gt;+ int LevelOfAccre&lt;br&gt;+ int YearOfExp&lt;/p&gt;&lt;hr size=&quot;1&quot; style=&quot;border-style:solid;&quot;&gt;&lt;p style=&quot;margin:0px;margin-left:4px;&quot;&gt;+ method1(Type): Type&lt;br&gt;+ method2(Type, Type): Type&lt;/p&gt;" style="verticalAlign=top;align=left;overflow=fill;html=1;whiteSpace=wrap;fillColor=#d5e8d4;strokeColor=#82b366;" parent="1" vertex="1">
          <mxGeometry x="-469" y="-4" width="190" height="140" as="geometry" />
        </mxCell>
        <mxCell id="nj6uRhFDFIgMoqxumQQm-18" value="League" style="swimlane;fontStyle=1;align=center;verticalAlign=top;childLayout=stackLayout;horizontal=1;startSize=26;horizontalStack=0;resizeParent=1;resizeParentMax=0;resizeLast=0;collapsible=1;marginBottom=0;whiteSpace=wrap;html=1;fillColor=#e1d5e7;strokeColor=#9673a6;" parent="1" vertex="1">
          <mxGeometry x="251" y="56" width="160" height="124" as="geometry" />
        </mxCell>
        <mxCell id="nj6uRhFDFIgMoqxumQQm-19" value="&lt;div&gt;+ int NoOfteams&lt;/div&gt;+ team[] TotalTeams&lt;div&gt;+ int NoOfgames&lt;/div&gt;&lt;div&gt;+game[] AllGames&lt;/div&gt;" style="text;strokeColor=#6c8ebf;fillColor=#dae8fc;align=left;verticalAlign=top;spacingLeft=4;spacingRight=4;overflow=hidden;rotatable=0;points=[[0,0.5],[1,0.5]];portConstraint=eastwest;whiteSpace=wrap;html=1;" parent="nj6uRhFDFIgMoqxumQQm-18" vertex="1">
          <mxGeometry y="26" width="160" height="64" as="geometry" />
        </mxCell>
        <mxCell id="nj6uRhFDFIgMoqxumQQm-20" value="" style="line;strokeWidth=1;fillColor=none;align=left;verticalAlign=middle;spacingTop=-1;spacingLeft=3;spacingRight=3;rotatable=0;labelPosition=right;points=[];portConstraint=eastwest;strokeColor=inherit;" parent="nj6uRhFDFIgMoqxumQQm-18" vertex="1">
          <mxGeometry y="90" width="160" height="8" as="geometry" />
        </mxCell>
        <mxCell id="nj6uRhFDFIgMoqxumQQm-21" value="+ method(type): type" style="text;strokeColor=none;fillColor=none;align=left;verticalAlign=top;spacingLeft=4;spacingRight=4;overflow=hidden;rotatable=0;points=[[0,0.5],[1,0.5]];portConstraint=eastwest;whiteSpace=wrap;html=1;" parent="nj6uRhFDFIgMoqxumQQm-18" vertex="1">
          <mxGeometry y="98" width="160" height="26" as="geometry" />
        </mxCell>
        <mxCell id="nj6uRhFDFIgMoqxumQQm-27" value="" style="endArrow=block;dashed=1;endFill=0;endSize=12;html=1;rounded=0;exitX=1;exitY=0.5;exitDx=0;exitDy=0;entryX=-0.01;entryY=0.11;entryDx=0;entryDy=0;entryPerimeter=0;edgeStyle=orthogonalEdgeStyle;curved=1;" parent="1" source="nj6uRhFDFIgMoqxumQQm-16" target="nj6uRhFDFIgMoqxumQQm-7" edge="1">
          <mxGeometry width="160" relative="1" as="geometry">
            <mxPoint x="-99" y="-34" as="sourcePoint" />
            <mxPoint x="61" y="-34" as="targetPoint" />
          </mxGeometry>
        </mxCell>
        <mxCell id="nj6uRhFDFIgMoqxumQQm-31" style="edgeStyle=orthogonalEdgeStyle;rounded=0;orthogonalLoop=1;jettySize=auto;html=1;entryX=0.996;entryY=0.098;entryDx=0;entryDy=0;entryPerimeter=0;" parent="1" source="nj6uRhFDFIgMoqxumQQm-18" target="nj6uRhFDFIgMoqxumQQm-11" edge="1">
          <mxGeometry relative="1" as="geometry" />
        </mxCell>
        <mxCell id="nj6uRhFDFIgMoqxumQQm-32" value="" style="endArrow=block;dashed=1;endFill=0;endSize=12;html=1;rounded=0;exitX=1.008;exitY=0.195;exitDx=0;exitDy=0;exitPerimeter=0;entryX=0;entryY=0.5;entryDx=0;entryDy=0;edgeStyle=orthogonalEdgeStyle;curved=1;" parent="1" source="nj6uRhFDFIgMoqxumQQm-17" target="nj6uRhFDFIgMoqxumQQm-8" edge="1">
          <mxGeometry width="160" relative="1" as="geometry">
            <mxPoint x="-99" y="-34" as="sourcePoint" />
            <mxPoint x="61" y="-34" as="targetPoint" />
            <Array as="points">
              <mxPoint x="-179" y="23" />
              <mxPoint x="-179" y="-166" />
            </Array>
          </mxGeometry>
        </mxCell>
        <mxCell id="nj6uRhFDFIgMoqxumQQm-33" value="" style="endArrow=block;dashed=1;endFill=0;endSize=12;html=1;rounded=0;entryX=0.019;entryY=0.065;entryDx=0;entryDy=0;entryPerimeter=0;edgeStyle=orthogonalEdgeStyle;curved=1;" parent="1" target="nj6uRhFDFIgMoqxumQQm-3" edge="1">
          <mxGeometry width="160" relative="1" as="geometry">
            <mxPoint x="-279" y="26" as="sourcePoint" />
            <mxPoint x="61" y="-34" as="targetPoint" />
            <Array as="points">
              <mxPoint x="-279" y="36" />
              <mxPoint x="-99" y="36" />
              <mxPoint x="-99" y="55" />
            </Array>
          </mxGeometry>
        </mxCell>
        <mxCell id="bzR0ICW51Rx2J5BpqFiW-2" value="Question 8" style="swimlane;whiteSpace=wrap;html=1;fillColor=#ffe6cc;strokeColor=#d79b00;" parent="1" vertex="1">
          <mxGeometry x="-590" y="-440" width="1160" height="690" as="geometry" />
        </mxCell>
        <mxCell id="qiytE-SoDP7nI0PneISW-4" value="" style="endArrow=diamondThin;endFill=0;endSize=24;html=1;rounded=0;exitX=0.468;exitY=1.136;exitDx=0;exitDy=0;exitPerimeter=0;entryX=0.5;entryY=0;entryDx=0;entryDy=0;" edge="1" parent="1" source="nj6uRhFDFIgMoqxumQQm-10" target="nj6uRhFDFIgMoqxumQQm-3">
          <mxGeometry width="160" relative="1" as="geometry">
            <mxPoint x="40" y="30" as="sourcePoint" />
            <mxPoint x="200" y="30" as="targetPoint" />
          </mxGeometry>
        </mxCell>
        <mxCell id="qiytE-SoDP7nI0PneISW-5" value="" style="endArrow=diamondThin;endFill=1;endSize=24;html=1;rounded=0;exitX=1;exitY=0.5;exitDx=0;exitDy=0;entryX=0;entryY=0.5;entryDx=0;entryDy=0;" edge="1" parent="1" source="nj6uRhFDFIgMoqxumQQm-4" target="nj6uRhFDFIgMoqxumQQm-11">
          <mxGeometry width="160" relative="1" as="geometry">
            <mxPoint x="40" y="30" as="sourcePoint" />
            <mxPoint x="200" y="30" as="targetPoint" />
            <Array as="points">
              <mxPoint x="190" y="110" />
              <mxPoint x="200" y="-260" />
            </Array>
          </mxGeometry>
        </mxCell>
      </root>
    </mxGraphModel>
  </diagram>
</mxfile>
